# xmcd CD database file
# Copyright (C) 1996 Ti Kan
#
# Track frame offsets:
#  150
#  17760
#  41747
#
# Disc length: 811 seconds
#
# Revision: 1
# Processed by: cddbd v1.4b41PL1 Copyright (c) Steve Scherf et al.
# Submitted via: CDWizzard Release:4.15
#
DISCID=1d032903
DTITLE=Lighthouse Family - Goodbye Heartbreak
DYEAR=1900
DGENRE=
TTITLE0=Goodbye Heartbreak (Phil Bodger Mix)
TTITLE1=Goodbye Heartbreak (Linslee Main Mix)
TTITLE2=Ocean Drive (Mindspell's Miami Beach Experience - Radio Mix)
EXTD=
EXTT0=
EXTT1=
EXTT2=
PLAYORDER=
